<svg xmlns="http://www.w3.org/2000/svg" viewBox="0 0 88.4 90.2"><title>comment</title><g id="Layer_2" data-name="Layer 2"><g id="Layer_1-2" data-name="Layer 1"><path d="M88.4,44.3A44.37,44.37,0,1,0,59,86l24,4.2h.3a2.09,2.09,0,0,0,1.6-.8,1.81,1.81,0,0,0,.3-2L78.7,72a46.64,46.64,0,0,0,6.7-11.6A44.22,44.22,0,0,0,88.4,44.3Zm-3.9-.1a40.85,40.85,0,0,1-2.8,14.7,41.86,41.86,0,0,1-6.9,11.4,2,2,0,0,0-.3,2.1l5.6,13.2L59.2,81.9a1.73,1.73,0,0,0-1,.1,39.38,39.38,0,0,1-14,2.5A40.25,40.25,0,1,1,84.5,44.2Z"/></g></g></svg>