<svg xmlns="http://www.w3.org/2000/svg" viewBox="0 0 94.03 84.7"><defs><style>.cls-1{fill:#fff;stroke:#000;stroke-miterlimit:10;stroke-width:4px;}</style></defs><title>heart</title><g id="Layer_2" data-name="Layer 2"><g id="Layer_1-2" data-name="Layer 1"><path class="cls-1" d="M84.78,44.93,48.45,82.1a2,2,0,0,1-1.43.6,2,2,0,0,1-1.43-.6L9.26,44.93A25.25,25.25,0,0,1,3.82,17.77,24.38,24.38,0,0,1,25.48,2C26,2,26.5,2,27,2A29.49,29.49,0,0,1,47,9.73,29.49,29.49,0,0,1,67,2c.51,0,1,0,1.53,0A24.38,24.38,0,0,1,90.22,17.77,25.25,25.25,0,0,1,84.78,44.93Z"/></g></g></svg>