<svg xmlns="http://www.w3.org/2000/svg" viewBox="0 0 90.03 80.7"><defs><style>.cls-1{fill:#ed4956;}</style></defs><title>heart-filled</title><g id="Layer_2" data-name="Layer 2"><g id="Layer_1-2" data-name="Layer 1"><path class="cls-1" d="M82.78,42.93,46.45,80.1a2,2,0,0,1-1.43.6,2,2,0,0,1-1.43-.6L7.26,42.93A25.25,25.25,0,0,1,1.82,15.77,24.38,24.38,0,0,1,23.48,0C24,0,24.5,0,25,0A29.49,29.49,0,0,1,45,7.73,29.49,29.49,0,0,1,65,0c.51,0,1,0,1.53,0A24.38,24.38,0,0,1,88.22,15.77,25.25,25.25,0,0,1,82.78,42.93Z"/></g></g></svg>